<svg id="Capa_1" data-name="Capa 1" xmlns="http://www.w3.org/2000/svg" xmlns:xlink="http://www.w3.org/1999/xlink" viewBox="0 0 207.21 76.4"><defs><style>.cls-1{fill:url(#linear-gradient);}.cls-2{fill:url(#linear-gradient-2);}.cls-3{fill:url(#linear-gradient-3);}.cls-4,.cls-9{font-size:12.65px;fill:#616160;font-family:Gotham-Bold, Gotham;font-weight:700;}.cls-4{letter-spacing:0.08em;}.cls-5{fill:url(#linear-gradient-4);}.cls-6{fill:url(#linear-gradient-5);}.cls-7{fill:url(#linear-gradient-6);}.cls-8{fill:url(#linear-gradient-7);}.cls-9{letter-spacing:0.08em;}</style><linearGradient id="linear-gradient" x1="88.08" y1="-11.18" x2="44.16" y2="93.86" gradientUnits="userSpaceOnUse"><stop offset="0.01" stop-color="#dcc973"/><stop offset="0.01" stop-color="#d2bc69"/><stop offset="0.03" stop-color="#b79b4e"/><stop offset="0.06" stop-color="#a18038"/><stop offset="0.08" stop-color="#906a27"/><stop offset="0.11" stop-color="#845b1b"/><stop offset="0.14" stop-color="#7d5314"/><stop offset="0.18" stop-color="#7b5012"/><stop offset="0.28" stop-color="#8e6518"/><stop offset="0.39" stop-color="#9c751c"/><stop offset="0.47" stop-color="#a17a1e"/><stop offset="0.48" stop-color="#a47d22"/><stop offset="0.6" stop-color="#c2a64e"/><stop offset="0.69" stop-color="#d5c069"/><stop offset="0.74" stop-color="#dcc973"/><stop offset="0.78" stop-color="#d6c26d"/><stop offset="0.83" stop-color="#c7af5e"/><stop offset="0.9" stop-color="#ad8f44"/><stop offset="0.97" stop-color="#8a6321"/><stop offset="1" stop-color="#7b5012"/></linearGradient><linearGradient id="linear-gradient-2" x1="147.23" y1="13.55" x2="103.31" y2="118.59" xlink:href="#linear-gradient"/><linearGradient id="linear-gradient-3" x1="165.7" y1="21.27" x2="121.78" y2="126.31" xlink:href="#linear-gradient"/><linearGradient id="linear-gradient-4" x1="312.57" y1="90.35" x2="409.14" y2="90.35" gradientTransform="matrix(0.39, -0.02, 0, 0.39, 48.87, 58)" xlink:href="#linear-gradient"/><linearGradient id="linear-gradient-5" x1="-254.35" y1="123.57" x2="-172.12" y2="123.57" gradientTransform="matrix(-0.43, 0.03, 0, -0.43, 6.16, 123.89)" xlink:href="#linear-gradient"/><linearGradient id="linear-gradient-6" x1="119.15" y1="76.38" x2="138.64" y2="76.38" xlink:href="#linear-gradient"/><linearGradient id="linear-gradient-7" x1="140.85" y1="76.45" x2="156.74" y2="76.45" xlink:href="#linear-gradient"/></defs><title>MIA2</title><path class="cls-1" d="M81.06,62.79h-.94c-5.48,0-9.83-1.45-13.05-4.28a12.43,12.43,0,0,1-1.13-1.2l-1.7,1.51A91.19,91.19,0,0,1,48.79,71C41,75.78,33.41,78.17,26.23,78.17a30.62,30.62,0,0,1-5.86-.57,25.92,25.92,0,0,1-6.37-2,26.08,26.08,0,0,1-5.61-3.28,21.49,21.49,0,0,1-5.1-5.61C-.43,60.84-1,53.4,1.59,44.45,6.31,28.38,20.05,22.9,30.89,24.6a18.57,18.57,0,0,1,9.46,4.16,10.89,10.89,0,0,1,3.84,8v.69c-.25,4-3.53,5.55-3.4,4.1s1.39-4.16,1-6.24a8.94,8.94,0,0,0-3-4.91,16,16,0,0,0-8.31-3.6,23.4,23.4,0,0,0-15.38,2.9C9.65,32.92,5.75,38.21,3.73,45.08c-2.46,8.26-2,15.13,1.38,20.42a19.44,19.44,0,0,0,4.61,5,28.15,28.15,0,0,0,5.1,3,34,34,0,0,0,4.54,1.58c.5.12,1,.25,1.45.31a31.24,31.24,0,0,0,13.61-.57,47.68,47.68,0,0,0,13.24-5.8A89.76,89.76,0,0,0,64.49,55.48a17.82,17.82,0,0,1-1.89-3.84,23.34,23.34,0,0,1-1.39-5.8,32.72,32.72,0,0,1-.06-6.37,23.77,23.77,0,0,1,6.68-14.12,34.66,34.66,0,0,1,11.91-7.62,57.16,57.16,0,0,1,16.39-3.79h.06c.06,0,.19-.06.25-.06h1c.32.06,2,.19,1.51,2.65-2.52,10.08-4.66,19.35-5.29,26a17.1,17.1,0,0,1,1.13-2.15,83.48,83.48,0,0,1,9-11.91,179.22,179.22,0,0,1,13.8-14c0-.07.06-.07.13-.13a1.77,1.77,0,0,1,1-.38h2.15A2.42,2.42,0,0,1,123,17.47c-3.22,5.68-9.27,16.83-12.36,25.09-4.91,13-3.59,16.95-1.63,18.15a5.8,5.8,0,0,0,.94.32c1.89.37,5.17-2,9.08-6.68A76.93,76.93,0,0,0,125.25,46a1,1,0,0,1,1.51-.31,1.11,1.11,0,0,1,.38,1.51,94,94,0,0,1-6.43,8.64c-4.29,5-7.69,7.5-10.4,7.5a.74.74,0,0,1-.38-.07,6.32,6.32,0,0,1-2.2-.56c-3-1.33-7.44-5.42-3.85-17.9A116.28,116.28,0,0,1,112,24.22,70.78,70.78,0,0,0,101.23,35a70.44,70.44,0,0,0-4.54,6.49c-2.14,3.59-3.08,6.55-2.83,8.57a3.49,3.49,0,0,0,.38,1,.58.58,0,0,1-.32.82,2.47,2.47,0,0,1-2.08-.25c-3.72-2-2.14-14.5-.25-24.58-4.92,6.86-14.75,20.1-24.77,29.43a6.94,6.94,0,0,0,1,.94c2.83,2.59,6.68,4,11.47,4.1,1.57,0,3.47-.88,4.6-1.07s.38,2.08-2.4,2.33ZM65.37,54.54c2-2,4-4.16,5.92-6.43A201,201,0,0,0,88.06,25.67c2.46-3.85,4.29-6.93,5.29-8.7-3.65.13-13.36,1-20.73,6a33.4,33.4,0,0,0-3.91,3.28,22.66,22.66,0,0,0-6.3,13.36,29.9,29.9,0,0,0,.06,6.11A22.38,22.38,0,0,0,65.37,54.54Z" transform="translate(0 -13.88)"/><path class="cls-2" d="M142.75,47.16a97.31,97.31,0,0,1-6.49,8.7c-4.29,5.1-7.76,7.56-10.47,7.56a3.17,3.17,0,0,1-.75-.06,6.79,6.79,0,0,1-2.15-.69c-4.41-2.15-1.7-9.46-1.7-9.46a55.77,55.77,0,0,1,6.75-13.42,1.64,1.64,0,0,1,1.38-.76h2.15c1.26,0,1.76,1.7.88,3.15-2.71,4.29-10.59,18.09-6.87,19,1.89.25,5.17-2.15,9.07-6.75A81.91,81.91,0,0,0,140.86,46a1,1,0,0,1,1.51-.31A1.1,1.1,0,0,1,142.75,47.16Zm-11.91-10a3.51,3.51,0,0,1,0-3.21,2.13,2.13,0,0,1,3.27-.82c.76.57,1.52,2.08-.82,3.65,0,0-.75.57-1.07.89A.9.9,0,0,1,130.84,37.2Z" transform="translate(0 -13.88)"/><path class="cls-3" d="M170.54,47.16a91.92,91.92,0,0,1-6.43,8.64c-4.22,5-7.68,7.5-10.39,7.5-.19,0-.38-.07-.57-.07-1.2-.12-5-.94-5.17-4.91A20.19,20.19,0,0,1,144.32,62a6,6,0,0,1-3.21,1.19,2.93,2.93,0,0,1-.69-.06,5.73,5.73,0,0,1-1.52-.57c-1.45-.88-3.4-2.9-2.58-7.56,1.2-7,9.71-18.4,14.62-15.51,0,0,2,.89,2.21,4.48a36.73,36.73,0,0,1,2.65-4.22,1.56,1.56,0,0,1,1.38-.76h2.08c1.32,0,1.83,1.7.88,3.15-2.71,4.29-10.46,18-6.74,18.85,1.89.31,5.17-2.08,9.08-6.68A91.61,91.61,0,0,0,168.72,46a1,1,0,0,1,1.51-.31A1.08,1.08,0,0,1,170.54,47.16Zm-24.2,9.64c.57-.69,1.07-1.45,1.51-2.07,1.08-2.34,4.54-12,2.34-12.3s-7.5,7.25-9.21,12.3c-1.64,4.85,0,6.17.19,6.3C142.37,61,144.26,59.45,146.34,56.8Z" transform="translate(0 -13.88)"/><text class="cls-4" transform="translate(157.23 65.56)">AÑOS</text><path class="cls-5" d="M170.5,80.62c2.5.86,5.24,2,8.11,3.29,4.83,2.09,9.84,4.22,14.5,5.21a19.35,19.35,0,0,0,6.5.41,9.47,9.47,0,0,0,5.26-2.34l.49-.47A4.59,4.59,0,0,0,206.61,84a4.08,4.08,0,0,0-1.22-2.87,11,11,0,0,0-1.9-1.26c-.38-.36.59-.81,1.54,0,.11.11.26.21.4.33A4.85,4.85,0,0,1,207.2,84a5.46,5.46,0,0,1-1.93,3.68,10.44,10.44,0,0,1-5.61,2.5,19.81,19.81,0,0,1-6.71-.42c-4.74-1-9.75-3.17-14.63-5.26-3-1.31-5.92-2.54-8.48-3.37" transform="translate(0 -13.88)"/><path class="cls-6" d="M114.43,68.52c-2.33-.76-4.88-1.82-7.56-3-4.51-1.9-9.19-3.82-13.54-4.68a18.23,18.23,0,0,0-6.1-.29,9.21,9.21,0,0,0-5,2.29s-.31.29-.46.45a4.34,4.34,0,0,0-1.2,2.59,3.78,3.78,0,0,0,1.11,2.68,10.68,10.68,0,0,0,1.77,1.16c.35.32-.56.76-1.45,0-.1-.1-.24-.19-.37-.31A4.45,4.45,0,0,1,80,66a5.29,5.29,0,0,1,1.86-3.49A10.06,10.06,0,0,1,87.19,60a18.3,18.3,0,0,1,6.29.29c4.43.87,9.11,2.83,13.66,4.72,2.82,1.18,5.52,2.29,7.91,3" transform="translate(0 -13.88)"/><path class="cls-7" d="M128.5,76.12,124,68.06h1.19l4.07,7.43,8-7.43h1.42l-8.92,8.19,4.73,8.46h-1.19l-4.3-7.8-8.39,7.8h-1.42Z" transform="translate(0 -13.88)"/><path class="cls-8" d="M140.85,68.06H142l2.64,15.46,10.87-15.46h1.26l-12,16.78h-.86Z" transform="translate(0 -13.88)"/><text class="cls-9" transform="translate(92.22 65.56)">MIS</text></svg>