<svg id="Capa_1" data-name="Capa 1" xmlns="http://www.w3.org/2000/svg" xmlns:xlink="http://www.w3.org/1999/xlink" viewBox="0 0 158.6 58.47"><defs><style>.cls-1{fill:url(#linear-gradient);}.cls-2{fill:url(#linear-gradient-2);}.cls-3{fill:url(#linear-gradient-3);}.cls-4{font-size:9.68px;fill:#616160;font-family:Gotham-Bold, Gotham;font-weight:700;letter-spacing:0.08em;}.cls-5{fill:url(#linear-gradient-4);}.cls-6{fill:url(#linear-gradient-5);}.cls-7{fill:url(#linear-gradient-6);}.cls-8{fill:url(#linear-gradient-7);}</style><linearGradient id="linear-gradient" x1="91.72" y1="3.66" x2="58.11" y2="84.06" gradientUnits="userSpaceOnUse"><stop offset="0.01" stop-color="#dcc973"/><stop offset="0.01" stop-color="#d2bc69"/><stop offset="0.03" stop-color="#b79b4e"/><stop offset="0.06" stop-color="#a18038"/><stop offset="0.08" stop-color="#906a27"/><stop offset="0.11" stop-color="#845b1b"/><stop offset="0.14" stop-color="#7d5314"/><stop offset="0.18" stop-color="#7b5012"/><stop offset="0.28" stop-color="#8e6518"/><stop offset="0.39" stop-color="#9c751c"/><stop offset="0.47" stop-color="#a17a1e"/><stop offset="0.48" stop-color="#a47d22"/><stop offset="0.6" stop-color="#c2a64e"/><stop offset="0.69" stop-color="#d5c069"/><stop offset="0.74" stop-color="#dcc973"/><stop offset="0.78" stop-color="#d6c26d"/><stop offset="0.83" stop-color="#c7af5e"/><stop offset="0.9" stop-color="#ad8f44"/><stop offset="0.97" stop-color="#8a6321"/><stop offset="1" stop-color="#7b5012"/></linearGradient><linearGradient id="linear-gradient-2" x1="136.99" y1="22.59" x2="103.38" y2="102.99" xlink:href="#linear-gradient"/><linearGradient id="linear-gradient-3" x1="151.13" y1="28.5" x2="117.51" y2="108.9" xlink:href="#linear-gradient"/><linearGradient id="linear-gradient-4" x1="272.44" y1="67.41" x2="346.36" y2="67.41" gradientTransform="matrix(0.39, -0.02, 0, 0.39, 48.87, 58)" xlink:href="#linear-gradient"/><linearGradient id="linear-gradient-5" x1="-247.96" y1="130.15" x2="-185.03" y2="130.15" gradientTransform="matrix(-0.43, 0.03, 0, -0.43, 6.16, 123.89)" xlink:href="#linear-gradient"/><linearGradient id="linear-gradient-6" x1="115.5" y1="70.68" x2="130.42" y2="70.68" xlink:href="#linear-gradient"/><linearGradient id="linear-gradient-7" x1="132.11" y1="70.73" x2="144.27" y2="70.73" xlink:href="#linear-gradient"/></defs><title>MIA2</title><path class="cls-1" d="M86.35,60.28h-.72c-4.2,0-7.53-1.11-10-3.28a8,8,0,0,1-.87-.92l-1.3,1.16a69.14,69.14,0,0,1-11.82,9.31c-6,3.67-11.77,5.5-17.27,5.5a23.62,23.62,0,0,1-4.49-.43A20,20,0,0,1,35,70.07a19.19,19.19,0,0,1-4.29-2.51,16.37,16.37,0,0,1-3.91-4.29q-4.28-6.74-1.3-17C29.14,33.94,39.65,29.74,48,31.05a14.25,14.25,0,0,1,7.24,3.18,8.37,8.37,0,0,1,2.94,6.13v.53c-.19,3.08-2.7,4.24-2.61,3.13s1.07-3.18.78-4.77A6.87,6.87,0,0,0,54,35.48a12.26,12.26,0,0,0-6.37-2.75,18.18,18.18,0,0,0-5.84.05A18.37,18.37,0,0,0,35.89,35a19.54,19.54,0,0,0-8.73,11.77C25.28,53,25.66,58.3,28.22,62.35a14.77,14.77,0,0,0,3.52,3.86,22.17,22.17,0,0,0,3.91,2.32,24.66,24.66,0,0,0,3.47,1.2,8.94,8.94,0,0,0,1.11.24,23.86,23.86,0,0,0,10.42-.43A36.42,36.42,0,0,0,60.78,65.1,68.18,68.18,0,0,0,73.66,54.68a13.86,13.86,0,0,1-1.44-2.94,18.5,18.5,0,0,1-1.07-4.44,25.73,25.73,0,0,1,0-4.87,18.18,18.18,0,0,1,5.11-10.81,26.48,26.48,0,0,1,9.12-5.83,43.59,43.59,0,0,1,12.54-2.9h.05s.14-.05.19-.05h.77c.24.05,1.55.15,1.16,2-1.93,7.72-3.57,14.81-4,19.88a12.36,12.36,0,0,1,.87-1.64,63,63,0,0,1,6.9-9.12,137.18,137.18,0,0,1,10.56-10.76c0-.05,0-.05.1-.1a1.39,1.39,0,0,1,.77-.29h1.64a1.85,1.85,0,0,1,1.59,2.75c-2.46,4.35-7.09,12.88-9.45,19.2-3.77,10-2.75,13-1.26,13.9a4.79,4.79,0,0,0,.73.24c1.44.29,4-1.55,6.94-5.11a57.66,57.66,0,0,0,4.78-6.42.8.8,0,0,1,1.16-.24.84.84,0,0,1,.28,1.16,70.93,70.93,0,0,1-4.91,6.61c-3.28,3.85-5.89,5.74-8,5.74a.58.58,0,0,1-.29-.05,4.85,4.85,0,0,1-1.69-.44c-2.32-1-5.69-4.14-3-13.7A88.19,88.19,0,0,1,110,30.76,54.17,54.17,0,0,0,101.79,39a55.3,55.3,0,0,0-3.48,5c-1.63,2.75-2.36,5-2.17,6.56a3.35,3.35,0,0,0,.29.78.43.43,0,0,1-.24.62,1.9,1.9,0,0,1-1.59-.19c-2.85-1.5-1.64-11.1-.19-18.81-3.77,5.25-11.29,15.39-19,22.53a5.25,5.25,0,0,0,.77.72A13.12,13.12,0,0,0,85,59.32a19.43,19.43,0,0,0,3.52-.83c.87-.14.29,1.6-1.83,1.79ZM74.34,54c1.54-1.54,3-3.18,4.53-4.92A154.19,154.19,0,0,0,91.71,31.86c1.88-2.94,3.28-5.3,4.05-6.65-2.8.09-10.23.72-15.87,4.58a24.79,24.79,0,0,0-3,2.51,17.36,17.36,0,0,0-4.83,10.23,23.15,23.15,0,0,0,.05,4.68A17,17,0,0,0,74.34,54Z" transform="translate(-24.3 -22.84)"/><path class="cls-2" d="M133.57,48.32a76.14,76.14,0,0,1-5,6.65c-3.28,3.91-5.94,5.79-8,5.79a2.28,2.28,0,0,1-.58,0,4.88,4.88,0,0,1-1.64-.53c-3.38-1.64-1.3-7.23-1.3-7.23a42.37,42.37,0,0,1,5.16-10.28,1.28,1.28,0,0,1,1.06-.58h1.64c1,0,1.35,1.3.67,2.41-2.07,3.29-8.1,13.85-5.25,14.57,1.44.2,4-1.64,6.94-5.16a62.58,62.58,0,0,0,4.83-6.51.79.79,0,0,1,1.15-.24A.85.85,0,0,1,133.57,48.32Zm-9.12-7.63a2.7,2.7,0,0,1,0-2.46,1.63,1.63,0,0,1,2.51-.62c.57.43,1.15,1.59-.63,2.79,0,0-.58.44-.82.68A.69.69,0,0,1,124.45,40.69Z" transform="translate(-24.3 -22.84)"/><path class="cls-3" d="M154.84,48.32a74.28,74.28,0,0,1-4.92,6.61c-3.23,3.85-5.89,5.74-8,5.74-.15,0-.29-.05-.44-.05-.91-.1-3.81-.73-4-3.77a15.47,15.47,0,0,1-2.8,2.85,4.59,4.59,0,0,1-2.46.92,2.05,2.05,0,0,1-.53,0,4.67,4.67,0,0,1-1.16-.44c-1.11-.67-2.6-2.21-2-5.78.92-5.36,7.43-14.09,11.2-11.87,0,0,1.54.67,1.68,3.42a30.18,30.18,0,0,1,2-3.23,1.23,1.23,0,0,1,1.06-.58h1.59c1,0,1.4,1.3.68,2.41-2.08,3.29-8,13.75-5.16,14.43,1.44.24,3.95-1.59,6.94-5.11a69,69,0,0,0,4.78-6.42.8.8,0,0,1,1.16-.24A.84.84,0,0,1,154.84,48.32ZM136.31,55.7c.44-.53.82-1.11,1.16-1.6.82-1.78,3.48-9.16,1.79-9.4s-5.74,5.54-7,9.4,0,4.73.15,4.83C133.27,58.88,134.72,57.72,136.31,55.7Z" transform="translate(-24.3 -22.84)"/><text class="cls-4" transform="translate(120.34 50.18)">AÑOS</text><path class="cls-5" d="M154.81,73.93c1.91.65,4,1.55,6.2,2.51a62.5,62.5,0,0,0,11.1,4,14.84,14.84,0,0,0,5,.32,7.33,7.33,0,0,0,4-1.8s.25-.23.37-.36a3.47,3.47,0,0,0,.95-2.1,3.11,3.11,0,0,0-.93-2.19,8.46,8.46,0,0,0-1.46-1c-.28-.27.46-.62,1.18,0,.09.08.21.15.31.25a3.73,3.73,0,0,1,1.36,2.87,4.24,4.24,0,0,1-1.48,2.82,8,8,0,0,1-4.3,1.91A15.18,15.18,0,0,1,172,80.9a62.81,62.81,0,0,1-11.2-4c-2.31-1-4.53-1.94-6.49-2.58" transform="translate(-24.3 -22.84)"/><path class="cls-6" d="M111.89,64.67c-1.78-.59-3.74-1.4-5.79-2.27a56.7,56.7,0,0,0-10.36-3.58,14,14,0,0,0-4.67-.22,7.05,7.05,0,0,0-3.8,1.75s-.24.23-.35.35a3.29,3.29,0,0,0-.92,2,2.8,2.8,0,0,0,.85,2.05,7.51,7.51,0,0,0,1.35.89c.27.25-.43.58-1.11,0-.07-.07-.18-.14-.28-.23a3.37,3.37,0,0,1-1.24-2.67A4,4,0,0,1,87,60,7.75,7.75,0,0,1,91,58.16a14.07,14.07,0,0,1,4.81.22A56.74,56.74,0,0,1,106.31,62c2.16.91,4.23,1.76,6.06,2.32" transform="translate(-24.3 -22.84)"/><path class="cls-7" d="M122.66,70.48l-3.47-6.17h.91L123.21,70l6.12-5.69h1.09l-6.83,6.27,3.62,6.48h-.91l-3.29-6-6.42,6H115.5Z" transform="translate(-24.3 -22.84)"/><path class="cls-8" d="M132.11,64.31H133l2,11.84,8.32-11.84h1l-9.18,12.85h-.65Z" transform="translate(-24.3 -22.84)"/><text class="cls-4" transform="translate(70.59 50.18)">MIS</text></svg>