<?xml version="1.0" encoding="utf-8"?>
<!-- Generator: Adobe Illustrator 24.1.3, SVG Export Plug-In . SVG Version: 6.00 Build 0)  -->
<svg version="1.1" id="Capa_1" xmlns="http://www.w3.org/2000/svg" xmlns:xlink="http://www.w3.org/1999/xlink" x="0px" y="0px"
	 viewBox="0 0 150 29.4" style="enable-background:new 0 0 150 29.4;" xml:space="preserve">
<style type="text/css">
	.st0{fill:#EE7187;}
</style>
<g>
	<path class="st0" d="M31.5,4.8l1,21.6h-2.1l-0.8-15.9l-8.3,10.6l-8.3-10.6l-0.8,15.9h-2.1l1-21.6l10.2,12.9L31.5,4.8z"/>
	<path class="st0" d="M51.9,7.3c1.4,1.5,2.3,3.4,2.3,5.5v13.6h-2.1v-1.8c-1.6,1-4.1,2.3-7.3,2.3c-2.2,0-4-0.7-5.3-1.9
		c-1.4-1.3-2.1-3.2-2.1-5.5c0-1.1,0.2-2.1,0.6-2.9c0.4-0.9,1-1.6,1.7-2.3c1.4-1.2,3.5-1.8,6.1-1.8c2.6,0,4.9,0.7,6.3,1.2v-1.2
		c0-3.1-2.5-5.6-5.6-5.6c-4,0-7.1,1.2-7.1,1.2l-0.8-1.8c0.1-0.1,3.4-1.3,7.9-1.3C48.5,5.1,50.4,5.8,51.9,7.3z M52.1,22.7v-7.4
		c-1.1-0.4-3.4-1.1-5.9-1.1c-3.8,0-6.7,1.7-6.7,5.3c0,3.4,2.2,5.7,5.6,5.7C48.3,25.2,50.8,23.7,52.1,22.7z"/>
	<path class="st0" d="M76.1,24.3v2.1c-4,0-6.3-2.1-7.6-3.8c-0.8-1.1-1.2-2.2-1.5-2.9h-6v6.8H59V5h8.9c2,0,3.8,0.8,5.2,2.2
		c1.4,1.4,2.1,3.2,2.1,5.2s-0.8,3.8-2.1,5.2c-1.1,1-2.4,1.7-3.8,2c0.2,0.5,0.5,1.2,1,1.9C71.7,23.4,73.6,24.3,76.1,24.3z M61.1,17.6
		h6.8c2.9,0,5.2-2.3,5.2-5.2s-2.3-5.3-5.2-5.3h-6.8V17.6z"/>
	<path class="st0" d="M78.2,5h15.6v2.1H87v19.3h-2.1V7.1h-6.8V5z"/>
	<path class="st0" d="M97.7,5h2.1v21.4h-2.1V5z"/>
	<path class="st0" d="M121.4,12.5v14h-2.1V12.2c0-3.5-2.1-5.6-5.6-5.6c-5,0-6.7,3.5-7,4.4v15.5h-2.1V5h2.1v2.9
		c1.2-1.6,3.4-3.2,7-3.2c1,0,2,0.2,2.9,0.5c1,0.3,1.8,0.8,2.5,1.5C120.6,8.1,121.4,10,121.4,12.5z"/>
	<path class="st0" d="M140.2,7.3c1.4,1.5,2.2,3.4,2.2,5.5v13.6h-2.1v-1.8c-1.6,1-4.1,2.3-7.3,2.3c-2.2,0-4-0.7-5.3-1.9
		c-1.4-1.3-2.1-3.2-2.1-5.5c0-1.1,0.2-2.1,0.6-2.9c0.4-0.9,1-1.6,1.7-2.3c1.4-1.2,3.5-1.8,6.1-1.8c2.6,0,5,0.7,6.3,1.2v-1.2
		c0-3.1-2.5-5.6-5.6-5.6c-4,0-7.1,1.2-7.1,1.2l-0.8-1.8c0.2-0.1,3.5-1.3,7.9-1.3C136.8,5.1,138.8,5.8,140.2,7.3z M140.4,22.7v-7.4
		c-1.1-0.4-3.4-1.1-5.9-1.1c-3.8,0-6.8,1.7-6.8,5.3c0,3.4,2.2,5.7,5.6,5.7C136.6,25.2,139.2,23.7,140.4,22.7z"/>
</g>
</svg>
