<svg id="Capa_1" data-name="Capa 1" xmlns="http://www.w3.org/2000/svg" viewBox="0 0 142.77 91.06"><defs><style>.cls-1{fill:#ee7091;}</style></defs><title>mis15</title><path class="cls-1" d="M88.07,46.75A8.51,8.51,0,0,0,87,48,32.59,32.59,0,0,0,82.6,59.7a1.29,1.29,0,0,1-.09.25,2,2,0,0,1-2-1.13,11.06,11.06,0,0,1-1.15-4.73,5,5,0,0,0-.2-1.3,24.51,24.51,0,0,1-1.39,2.7,23.58,23.58,0,0,1-2.45,3.09,3.14,3.14,0,0,1-2.7.9c-1.76-.2-2.68-1.35-2.89-3.55,0-.41-.08-.81-.12-1.25a23.57,23.57,0,0,1-1.83,3,6,6,0,0,1-2.2,1.64,3.14,3.14,0,0,1-4.42-1.89A35.77,35.77,0,0,1,60,53.33c-.11.22-.2.49-.34.73-.82,1.33-1.59,2.71-2.51,4a3.07,3.07,0,0,1-2.67,1.37,2.76,2.76,0,0,1-2.32-1.32,7.49,7.49,0,0,1-.81-5.48c.29-1.81.71-3.59.94-5.41a18.08,18.08,0,0,0-.12-2.64c0-.26.07-.69.22-.74a7.74,7.74,0,0,1,2.32-.61,1.56,1.56,0,0,1,1.52,1.48,12.33,12.33,0,0,1-.46,5.19c-.48,1.94-1,3.86-1.42,5.81a4.64,4.64,0,0,0,0,1.74c.18,1,.84,1.21,1.57.51a4.82,4.82,0,0,0,1-1.38c1.13-2.61,2.24-5.23,3.26-7.88a2.92,2.92,0,0,0-.21-2.81.69.69,0,0,1,.07-.57,1.88,1.88,0,0,1,3.24.12,7.68,7.68,0,0,1,.3,4.81c-.31,1.92-.57,3.85-.74,5.78-.08.94,0,2,1,2.42a2.24,2.24,0,0,0,2.57-1,15.34,15.34,0,0,0,1.81-3.14c.72-1.74,1.27-3.55,1.87-5.33a2.91,2.91,0,0,0-.29-2.56,1,1,0,0,1,.07-.9,2.44,2.44,0,0,1,2.74-.78,1.93,1.93,0,0,1,1.38,2.05,20.91,20.91,0,0,1-.39,3.79c-.34,1.74-.87,3.44-1.28,5.17a5.76,5.76,0,0,0-.1,1.66c.05.9.61,1.31,1.38.87a6.21,6.21,0,0,0,2-1.69,26.81,26.81,0,0,0,3.49-7.77,6.32,6.32,0,0,0-.78-4.4,1.77,1.77,0,0,1,3.07-.46,8.08,8.08,0,0,1,1.3,2.82A43,43,0,0,1,83.47,51a8.78,8.78,0,0,1,.47-.82c1.27-1.73,2.48-3.51,3.84-5.16a3.69,3.69,0,0,1,3.35-1.38,2.06,2.06,0,0,1,2.09,2.2,8.71,8.71,0,0,1-.43,2.52c-1.28,4-2.23,8-1.79,12.28a11.93,11.93,0,0,0,1,3.82c.93,2,2.86,2,4.1.28a14.9,14.9,0,0,0,2.21-6.9c0-.23-.22-.54-.4-.75a8.56,8.56,0,0,1-.07-10.81,6.05,6.05,0,0,1,6.61-1.92c2.72.81,3.28,3.43,2.15,5.7a2.36,2.36,0,0,1-1.39,1c-.6.16-1-.24-1.06-.93a2,2,0,0,0,1.59-2.32,2.14,2.14,0,0,0-1.32-2,2.11,2.11,0,0,0-2.26.54,7,7,0,0,0-2.28,4,8.52,8.52,0,0,0,1,6.34,2.56,2.56,0,0,0,3.26,1.35A7.7,7.7,0,0,0,107.65,56c.7-.69,1.33-1.47,2-2.2a1.87,1.87,0,0,0,.48-1.5,7.17,7.17,0,0,1,8.77-7.5,2,2,0,0,1,1.67,2.51c-.38,2.85-2.64,4.35-5.71,3.7a7,7,0,0,0-.34,3.4,8.42,8.42,0,0,0,.71,2.62,2.45,2.45,0,0,0,3.72,1.1,6.1,6.1,0,0,0,2.87-3.89,2.5,2.5,0,0,0,0-1.3c-.16-.53-.32-1,.32-1.23a1,1,0,0,1,1.45.57,4.71,4.71,0,0,1,.14,2.11,6.83,6.83,0,0,1-13.13.62c-3,3.58-6.44,5.44-11,3.5a33.51,33.51,0,0,1-.93,3.61,16,16,0,0,1-1.73,3.55,3.34,3.34,0,0,1-4.95.82C89.86,65.15,89,63,88.51,60.75a33.83,33.83,0,0,1-.59-9.63c.09-1.41.22-2.82.33-4.23Zm27,3.52a7.41,7.41,0,0,0,1.5,0,3.4,3.4,0,0,0,2.51-3c0-.34,0-.83-.24-1a1.16,1.16,0,0,0-1,.13A6.35,6.35,0,0,0,115.09,50.27Z"/><path class="cls-1" d="M34.39,65.49c2.27,1.46,4.43,3,6.71,4.25a7.57,7.57,0,0,0,6.76.64,4.39,4.39,0,0,0,2.38-2.17,1.48,1.48,0,0,0-.19-1.91c.4-.73,1-.73,1.71-.6a1.64,1.64,0,0,1,1.32,1.41,4.81,4.81,0,0,1-2,5,8.28,8.28,0,0,1-8.85.31,62.27,62.27,0,0,1-5.92-4c-.88-.61-1.76-1.22-2.61-1.87a1.07,1.07,0,0,0-1.26-.11,17.75,17.75,0,0,1-7.9,1.77A10.82,10.82,0,0,1,22,67.77c-2.05-.52-2.19-3.2-1-4.36A5.54,5.54,0,0,1,25.41,62a15,15,0,0,1,6.39,2.11A1.56,1.56,0,0,0,33.69,64c4.78-3.19,7.89-7.73,10-13A31.75,31.75,0,0,0,46.2,38a16.86,16.86,0,0,0-2-8.24A9.44,9.44,0,0,0,28.9,28.16a22.53,22.53,0,0,0-5.25,11A29.82,29.82,0,0,0,24,53.71a14.55,14.55,0,0,0,1.13,2.67c1.5,2.83,4.25,2.74,6.29,1.11A8.78,8.78,0,0,0,34.25,53c.73-2.41,1.29-4.86.52-7.38a4,4,0,0,0-3.35-3.18c-.09-1,.22-1.4,1.16-1.48a3,3,0,0,1,2.83,1.5,8.4,8.4,0,0,1,1.2,5.75,13.84,13.84,0,0,1-3.81,8.9c-3.34,3.37-6.61,3.21-10.07-.56a14.65,14.65,0,0,1-3.57-8.79,26,26,0,0,1,3.4-16.19c2.4-4,5.77-6.87,10.38-7.68,5.31-.92,10.14.17,13.84,4.54a13.4,13.4,0,0,1,3,8.38c.43,11.61-4.15,20.69-13.44,27.31Zm-2.81-.2c-1.82-.91-3.39-1.85-5.21-2a9.76,9.76,0,0,0-2.89.28,1.8,1.8,0,0,0-1.38,1.76c0,.86.71,1.2,1.35,1.51a2.91,2.91,0,0,0,.87.21C26.87,67.38,29.11,66.39,31.58,65.29Z"/><path class="cls-1" d="M63.51,22.12l3.8,5.27L69.62,20,73.89,26l2.39-5.43V26.9l6.56-6L83,21C80,28,77,34.88,74,41.88a4.47,4.47,0,0,0-4.73.33q-5.93-8.94-11.8-17.81l.1-.11,7.65,3.93-1.84-6Z"/><path class="cls-1" d="M90.41,33.14c0,1.86,0,3.72,0,5.58,0,.58.34.59.7.71.16,0,.26.25.39.39-.15.08-.3.22-.45.22-.71,0-1.42,0-2.12,0-.17,0-.33-.18-.49-.28a2.1,2.1,0,0,1,.46-.34,4.89,4.89,0,0,1,.73-.17V31.86c-.25-.46-1.24.15-1.09-.91.87,0,1.71,0,2.55,0,.2,0,.47.32.56.55.8,2,1.57,4.06,2.44,6.32L96.56,31h2.87c0,.59,0,.59-.92.75v7.59a5,5,0,0,1,.79.16c.11,0,.19.19.28.3-.1.09-.21.26-.32.26-1.09,0-2.18,0-3.26,0-.12,0-.23-.17-.34-.26.09-.11.16-.27.28-.32a5.53,5.53,0,0,1,.75-.18V32.9c-.16.36-.26.56-.34.77-.7,1.92-1.39,3.86-2.12,5.77-.09.25-.39.57-.6.57a.93.93,0,0,1-.65-.54c-.72-1.8-1.39-3.62-2.08-5.43-.12-.32-.26-.64-.4-1Z"/><path class="cls-1" d="M72.3,69.13c0-3.11,2.4-5.16,5.06-4.22a4.32,4.32,0,0,1,2,1.51,5.16,5.16,0,0,1-.47,6.1,3.82,3.82,0,0,1-4.16.79C73.12,72.65,72.29,71.19,72.3,69.13Zm1.54,0c.25,1,.44,1.91.76,2.81a1.56,1.56,0,0,0,1.61,1,1.63,1.63,0,0,0,1.55-1,6.43,6.43,0,0,0,0-5.55,1.67,1.67,0,0,0-3.11,0A17.8,17.8,0,0,0,73.84,69.09Z"/><path class="cls-1" d="M69.81,70.75c0-1.77,0-3.29,0-4.81,0-.13-.43-.26-.67-.38l-.76-.34.09-.27h3.28c-.27.28-.42.56-.57.56-.68,0-.69.42-.69.94,0,2.28,0,4.57,0,6.85-.54.32-.81,0-1.09-.36-1.31-1.88-2.64-3.74-4-5.61l-.34-.42v5.66c.32.4,1.21-.17,1.28.8h-3l-.12-.25,1.14-.62V67.58c0-.39,0-.78,0-1.17s0-.88-.65-.9c-.15,0-.28-.27-.42-.41l.09-.21c.67,0,1.34,0,2,0a1.09,1.09,0,0,1,.6.46C67.19,67.08,68.42,68.81,69.81,70.75Z"/><path class="cls-1" d="M111.27,33.23h-.87a2.86,2.86,0,0,1-.16-.64c0-.59-.13-1.09-.89-1.13s-1.63.25-1.83.92a1.35,1.35,0,0,0,.53,1.68c.72.44,1.51.77,2.26,1.15a2.59,2.59,0,0,1,1.53,2.29A2.48,2.48,0,0,1,110.26,40a5,5,0,0,1-4-.17.92.92,0,0,1-.42-.67,10,10,0,0,1,0-1.46h1a2.26,2.26,0,0,1,.17.68c0,1,.58,1.2,1.36,1.24a1.73,1.73,0,0,0,1.94-1.16c.2-.77-.1-1.35-1-1.79-.56-.28-1.15-.5-1.7-.8A2.75,2.75,0,0,1,106,32.7a2.69,2.69,0,0,1,2.73-1.94c.24,0,.49,0,.73,0C111.25,30.84,111.63,31.33,111.27,33.23Z"/><path class="cls-1" d="M86.24,67l-.44,0-.37,0a3.64,3.64,0,0,1-.16-.63c0-.58-.16-1-.87-1s-1.38.11-1.67.89a1.21,1.21,0,0,0,.51,1.53c.62.38,1.31.65,2,1a2.48,2.48,0,0,1-.83,4.78,6.48,6.48,0,0,1-1.46,0c-1.71-.19-2-.55-1.66-2.4l.81,0c0,.17.08.29.1.42a1.56,1.56,0,0,0,2.47,1.19,1.31,1.31,0,0,0,.08-2.3c-.59-.38-1.27-.62-1.89-1a2.55,2.55,0,0,1-1.5-1.85A2.24,2.24,0,0,1,83,64.86a5.46,5.46,0,0,1,1.45-.15C86.21,64.75,86.56,65.21,86.24,67Z"/><path class="cls-1" d="M60.1,72.56c-.31-1.86-.33-1.87-2.67-1.81-.69,0-1,.49-1.07,1.81l1,.55-.1.25H54.64l-.14-.15c.16-.15.33-.43.49-.43.58,0,.71-.38.85-.82.69-2.07,1.42-4.13,2.07-6.22.22-.7.5-1.06,1.33-.81.74,2.22,1.51,4.49,2.26,6.76.18.55.25,1.17,1,1.19.08,0,.15.27.27.5H59.18l-.11-.24Zm-.71-2.46-1.17-3.6-1.16,3.6Z"/><path class="cls-1" d="M100.76,31h3.81c.06.58.06.58-1,.76v7.58a7.63,7.63,0,0,1,.78.15c.11,0,.19.2.29.3-.11.09-.21.27-.32.27-1.11,0-2.22,0-3.34,0-.1,0-.21-.18-.31-.28.1-.09.2-.28.3-.27.78,0,.85-.46.84-1.08,0-2,0-4,0-6,0-.49-.1-.78-.67-.77-.19,0-.38-.24-.56-.37Z"/><path class="cls-1" d="M70.85,62.58c-.27,0-.52,0-.63-.13-1-.91-2-.63-3-.13a5.65,5.65,0,0,1-1.83.57,2,2,0,0,1-2-1.18c.36,0,.63,0,.75.08a1.89,1.89,0,0,0,2.6.13,3.57,3.57,0,0,1,2.65-.56A1.64,1.64,0,0,1,70.85,62.58Z"/><path class="cls-1" d="M84.12,18.13c.29.45.62.74.57.94s-.4.45-.63.67c-.2-.22-.57-.43-.57-.65S83.81,18.58,84.12,18.13Z"/><path class="cls-1" d="M56.28,23.5c-.3-.44-.62-.72-.57-.91s.4-.45.62-.67c.19.22.52.43.53.66S56.57,23.06,56.28,23.5Z"/><path class="cls-1" d="M70.21,18c-.41.33-.68.68-.85.64s-.45-.41-.67-.64c.21-.21.4-.55.62-.58S69.78,17.73,70.21,18Z"/></svg>