<svg id="Capa_1" data-name="Capa 1" xmlns="http://www.w3.org/2000/svg" xmlns:xlink="http://www.w3.org/1999/xlink" viewBox="0 0 1147.8 512"><defs><style>.cls-1,.cls-3{fill:#fff;}.cls-1{opacity:0.25;}.cls-2{fill:url(#Degradado_sin_nombre_19);}.cls-4{fill:#31a836;}.cls-5{isolation:isolate;}.cls-6{fill:red;}</style><linearGradient id="Degradado_sin_nombre_19" x1="573.9" y1="17.97" x2="573.9" y2="512.16" gradientUnits="userSpaceOnUse"><stop offset="0" stop-color="#1d1b28"/><stop offset="1" stop-color="#020913"/></linearGradient></defs><path class="cls-1" d="M57.64,0H1090.16c31.84,0,57.64,26.73,57.64,59.7V452.3c0,33-25.8,59.7-57.64,59.7H57.64C25.8,512,0,485.27,0,452.3V59.7C0,26.73,25.8,0,57.64,0Z"/><rect class="cls-2" x="15.54" y="15.78" width="1116.73" height="480.43" rx="56.02"/><path class="cls-3" d="M333,374.84a136,136,0,0,1-52.55-11.52,14.72,14.72,0,0,0-8.5-.87c-19.21,4.28-38.34,8.93-57.5,13.44-6.72,1.58-9.55-1.15-8.18-7.91,3.87-19.13,7.91-38.21,11.56-57.38a18.48,18.48,0,0,0-1-10.5c-34.7-76.12,11.75-164.42,94.31-179C382.23,108.62,450.07,158,459.59,229.18A127.92,127.92,0,0,1,351.47,373.26C345.4,374.13,339.18,374.32,333,374.84ZM333,147.15c-7.12.92-14.27,1.42-21.27,2.84-43.61,8.86-76.62,48.79-77.75,93.18A100.74,100.74,0,0,0,246.33,295a15.75,15.75,0,0,1,1.58,11.86c-2.14,9.26-3.79,18.63-6,27.88-1,4.23-.32,5.54,4.27,4.35,8.86-2.33,17.89-4.06,26.74-6.44a17.21,17.21,0,0,1,13.35,1.59,98.88,98.88,0,0,0,60.11,10.66c54.12-6.94,92.3-56.92,84.89-111.27C424.49,183.87,383.21,147.73,333,147.15Z"/><path class="cls-4" d="M333,147.15c50.22.61,91.53,36.75,98.32,86.55,7.42,54.36-30.77,104.33-84.91,111.36a98.81,98.81,0,0,1-60.11-10.67,17.25,17.25,0,0,0-13.35-1.58c-8.86,2.37-17.88,4.11-26.75,6.44-4.59,1.2-5.25-.12-4.26-4.35,2.17-9.25,3.82-18.62,5.95-27.88a15.7,15.7,0,0,0-1.58-11.86A100.77,100.77,0,0,1,234,243.22c1.13-44.38,34.13-84.31,77.75-93.17C318.72,148.54,325.9,148,333,147.15Zm37.17,162.34c11.63.79,21.76-7.62,29.58-19.88,4.35-6.8,2-13.28-5.65-15.81-4.74-1.58-9.8-2.33-14.38-4.26-9.76-4.11-17.94-3.54-24.66,5.68-2.64,3.61-6.8,4-10.85,1.81A121.57,121.57,0,0,1,304,241.53c-2.65-3.66-2.38-7.5.32-11.12,1.51-2,3.57-3.77,4.44-6,1.1-2.78,2.44-6.37,1.54-8.84a258.21,258.21,0,0,0-11-25.22c-2.38-4.87-8.21-6.74-12.4-3.82-10,7-17.8,15.67-18.28,28.85s4,25,11.21,35.7a149.32,149.32,0,0,0,56.07,50.3c9.43,4.91,19.53,7.72,34.24,8.09Z"/><path class="cls-3" d="M370.15,309.46c-14.71-.37-24.81-3.17-34.24-8.07a149.38,149.38,0,0,1-56.07-50.32c-7.2-10.71-11.72-22.46-11.23-35.72s8.29-21.84,18.29-28.85c4.18-2.93,10-1.05,12.39,3.82a256.12,256.12,0,0,1,11,25.22c.9,2.47-.44,6.06-1.53,8.83-.88,2.24-2.94,4-4.45,6-2.73,3.62-3,7.45-.32,11.12A121.78,121.78,0,0,0,344.18,277c4.05,2.23,8.21,1.8,10.85-1.81,6.72-9.22,14.9-9.79,24.66-5.68,4.58,1.93,9.63,2.7,14.39,4.25,7.69,2.53,10,9,5.65,15.82C391.9,301.83,381.78,310.27,370.15,309.46Z"/><g class="cls-5"><path class="cls-3" d="M552.64,189.91h38.05c28.18,0,47.75,13.64,47.75,43.8v2c0,32.13-23.52,44.34-46,44.34h-5.21v35.53H552.64Zm38.41,61.75c7.36,0,12.75-4.85,12.75-15.44V235c0-10.77-5-15.61-12.75-15.61h-3.77v32.31Z"/><path class="cls-3" d="M659.62,189.55H699.1l32.85,126H695.87l-4-19.2H666.08l-4,19.2H626.77Zm26.56,79.52L679,233.71l-7.18,35.36Z"/><path class="cls-3" d="M733.74,189.91H771.8c28.18,0,47.74,13.64,47.74,43.8v2c0,32.13-23.51,44.34-45.95,44.34h-5.2v35.53H733.74Zm38.41,61.75c7.36,0,12.75-4.85,12.75-15.44V235c0-10.77-5-15.61-12.75-15.61h-3.76v32.31Z"/><path class="cls-3" d="M840.72,189.55h39.49l32.84,126H877l-4-19.2H847.18l-3.95,19.2H807.87Zm19.92-28.89,34.11,6.82-22.8,16H848.08Zm6.64,108.41-7.18-35.36-7.18,35.36Z"/></g><rect class="cls-6" x="192.6" y="472.88" width="790.53" height="23.34"/></svg>